<?xml version="1.0" encoding="utf-8"?>
<svg viewBox="0 0 500 500" width="500" height="500" xmlns="http://www.w3.org/2000/svg" xmlns:bx="https://boxy-svg.com">
  <g transform="matrix(1.15391, 0, 0, 1.153925, -30.084502, 10.456275)">
    <path d="M 359.2 315.6 m -153.574 0 a 153.574 153.574 0 1 0 307.148 0 a 153.574 153.574 0 1 0 -307.148 0 Z M 359.2 315.6 m -92.145 0 a 92.145 92.145 0 0 1 184.29 0 a 92.145 92.145 0 0 1 -184.29 0 Z" style="fill: rgb(216, 216, 216);" transform="matrix(-0.654931, 0.755689, -0.755689, -0.654931, 716.493082, 142.860546)" bx:shape="ring 359.2 315.6 92.145 92.145 153.574 153.574 1@a9a59807"/>
    <path style="fill: rgb(216, 216, 216);" transform="matrix(-0.008474, -0.999964, 0.999964, -0.008474, -15.845459, 556.38474)" d="M 295.711 225.559 A 76.082 76.082 0 1 1 295.711 301.641 A 55.673 55.673 0 1 0 295.711 225.559 Z" bx:shape="crescent 361.6 263.6 76.082 300 0.7 1@7d2048dc"/>
  </g>
</svg>